<svg width="153" height="153" viewBox="0 0 153 153" fill="none" xmlns="http://www.w3.org/2000/svg">
<g filter="url(#filter0_d_1533_3032)">
<rect x="4" width="144.824" height="144.824" rx="72" fill="white"/>
<path d="M40.4676 75.2186C38.5348 75.6635 36.7733 75.7013 35.1833 75.3319C33.5895 74.9463 32.2614 74.1917 31.1989 73.0681C30.1364 71.9445 29.407 70.5218 29.0106 68.8002C28.461 66.4126 28.4197 64.1903 28.8868 62.133C29.3701 60.0721 30.2673 58.3605 31.5785 56.9983C32.8859 55.6199 34.4816 54.7138 36.3657 54.2801C38.1198 53.8763 39.5563 54.0244 40.6753 54.7246C41.7905 55.4085 42.5182 56.4895 42.8584 57.9675C43.0865 58.9583 43.091 59.7952 42.8721 60.4784C42.6693 61.1579 42.2431 61.5724 41.5934 61.722C41.1387 61.8267 40.757 61.8034 40.4486 61.652C40.1401 61.5007 39.9391 61.222 39.8456 60.816C39.812 60.6698 39.7828 60.3943 39.758 59.9896C39.7433 59.4799 39.7023 59.0789 39.635 58.7865C39.2947 57.3085 38.3369 56.7508 36.7614 57.1135C35.6895 57.3603 34.7466 57.945 33.9329 58.8678C33.1191 59.7905 32.5688 61.0032 32.282 62.5059C31.9914 63.9923 32.061 65.6694 32.491 67.5372C32.9397 69.4862 33.8315 70.8715 35.1665 71.6929C36.4977 72.4981 38.2272 72.6558 40.3549 72.166C41.4106 71.923 42.4445 71.5482 43.4567 71.0415C44.4813 70.5149 45.5879 69.8241 46.7763 68.969C46.9975 68.8154 47.1893 68.72 47.3517 68.6826C47.6116 68.6228 47.829 68.6753 48.0038 68.8403C48.1786 69.0053 48.3015 69.2421 48.3725 69.5507C48.6006 70.5415 48.2329 71.3957 47.2693 72.1135C46.2321 72.8825 45.1162 73.5327 43.9216 74.0643C42.7396 74.5758 41.5882 74.9606 40.4676 75.2186ZM59.5451 64.9777C59.7562 64.9291 59.9411 64.9892 60.0996 65.1579C60.2744 65.3229 60.4011 65.5759 60.4796 65.917C60.6292 66.5667 60.5908 67.1057 60.3644 67.5341C59.8155 68.5669 59.2066 69.451 58.5379 70.1864C57.8854 70.9181 57.0557 71.3999 56.0487 71.6317C55.2204 71.8224 54.5408 71.7308 54.0101 71.357C53.4757 70.967 53.1037 70.3172 52.8944 69.4076C52.7897 68.9529 52.7164 68.1146 52.6746 66.8929C52.6502 65.821 52.5931 65.0902 52.5034 64.7004C52.4435 64.4405 52.3243 64.3311 52.1456 64.3723C51.9345 64.4209 51.6976 64.7662 51.4349 65.4081C51.1685 66.0338 50.9432 66.8382 50.759 67.8212C50.5749 68.8043 50.475 69.8192 50.4595 70.8661C50.45 72.2364 49.8362 73.0619 48.618 73.3423C48.1308 73.4544 47.7667 73.3587 47.5258 73.055C47.2973 72.7313 47.0784 72.1147 46.869 71.2052C46.7494 70.6854 46.6622 70.2694 46.6074 69.9571L46.183 68.0024C45.6072 65.5012 45.2589 62.8364 45.138 60.0081C45.0333 57.1761 45.2651 54.7284 45.8333 52.665C46.4141 50.5816 47.4029 49.3791 48.7997 49.0575C49.5468 48.8856 50.2225 49.072 50.8269 49.617C51.4437 50.142 51.8699 50.9162 52.1054 51.9394C52.4831 53.5798 52.3965 55.3955 51.8458 57.3865C51.2914 59.3612 50.2051 61.7747 48.5871 64.6271C48.7328 65.4829 48.9085 66.3574 49.1141 67.2507C49.3323 65.7468 49.6671 64.4896 50.1186 63.4792C50.5826 62.4489 51.0884 61.674 51.6358 61.1546C52.1995 60.6315 52.7493 60.3083 53.2853 60.1849C54.341 59.9418 54.9904 60.3482 55.2334 61.4039C55.3792 62.0373 55.4642 63.2235 55.4882 64.9624C55.5049 66.4465 55.5656 67.4159 55.6703 67.8707C55.8199 68.5204 56.1302 68.791 56.6012 68.6826C56.926 68.6078 57.2628 68.325 57.6116 67.8343C57.9729 67.3235 58.4243 66.5355 58.9658 65.4702C59.1083 65.198 59.3014 65.0338 59.5451 64.9777ZM48.8433 51.5872C48.5509 51.6545 48.3233 52.1516 48.1604 53.0784C47.9938 53.989 47.9044 55.1982 47.8924 56.706C47.8929 58.1939 47.9801 59.7985 48.154 61.52C48.8881 60.1026 49.4192 58.6207 49.7473 57.0743C50.0917 55.5242 50.133 54.1807 49.8712 53.0438C49.7516 52.524 49.6031 52.1392 49.4259 51.8892C49.2486 51.6393 49.0544 51.5386 48.8433 51.5872ZM61.2612 70.4318C60.644 70.5738 60.1307 70.3499 59.7213 69.7601C59.3281 69.1665 58.967 68.1551 58.6379 66.7258C58.1519 64.6143 57.9906 62.5393 58.1541 60.5007C58.1918 59.996 58.3488 59.6007 58.625 59.3148C58.9138 59.0089 59.3586 58.7868 59.9596 58.6484C60.2844 58.5736 60.5211 58.5619 60.6698 58.6132C60.8184 58.6645 60.9189 58.8038 60.9712 59.0312C61.031 59.2911 61.0438 59.9038 61.0096 60.8695C60.9967 61.5565 60.9977 62.1549 61.0124 62.6646C61.0271 63.1743 61.0842 63.7939 61.1838 64.5235C61.3982 63.0033 61.7374 61.7281 62.2014 60.6977C62.6654 59.6674 63.1712 58.8925 63.7186 58.3731C64.2823 57.85 64.8321 57.5267 65.3681 57.4033C66.4238 57.1603 67.0732 57.5666 67.3162 58.6224C67.3648 58.8335 67.4095 59.362 67.4503 60.2077C67.4699 60.8873 67.4984 61.3083 67.5358 61.4707C67.6667 62.0392 67.9351 62.2767 68.3412 62.1832C68.7959 62.0785 69.2984 61.5866 69.8485 60.7074C70.0111 60.4477 70.206 60.2916 70.4334 60.2393C70.6446 60.1907 70.8294 60.2507 70.988 60.4195C71.159 60.5682 71.2801 60.7969 71.3511 61.1055C71.4895 61.7064 71.4355 62.2148 71.1892 62.6307C70.8428 63.2064 70.4003 63.7358 69.8616 64.219C69.3355 64.6822 68.7313 64.9923 68.0491 65.1493C67.1883 65.3475 66.4801 65.2796 65.9243 64.9458C65.3849 64.6082 65.0291 64.0659 64.8571 63.3187C64.801 63.0751 64.7693 62.8259 64.762 62.571C64.7197 62.2387 64.6854 62.0157 64.6593 61.902C64.5994 61.6422 64.4802 61.5328 64.3015 61.5739C64.0579 61.63 63.7966 61.9809 63.5177 62.6266C63.2513 63.2523 63.026 64.0567 62.8418 65.0397C62.6577 66.0228 62.5578 67.0377 62.5423 68.0845C62.5393 68.889 62.4478 69.4574 62.2678 69.7896C62.1002 70.1018 61.7647 70.3158 61.2612 70.4318ZM70.7982 54.4601C70.116 54.6172 69.5689 54.5807 69.1568 54.3506C68.7409 54.1043 68.4675 53.6969 68.3367 53.1284C68.2058 52.5599 68.3167 52.0384 68.6692 51.5639C69.0342 51.0694 69.5497 50.7455 70.2156 50.5922C70.8166 50.4539 71.3375 50.4879 71.7783 50.6943C72.2192 50.9006 72.5013 51.2718 72.6247 51.8078C72.7743 52.4574 72.6828 53.0258 72.3502 53.5128C72.0139 53.9836 71.4966 54.2994 70.7982 54.4601ZM73.615 67.5878C72.5593 67.8309 71.7018 67.6349 71.0426 66.9999C70.3996 66.3612 69.936 65.4247 69.6518 64.1903C69.4836 63.4594 69.3579 62.505 69.2748 61.3269C69.2043 60.1289 69.2011 59.0008 69.2654 57.9428C69.2919 57.3894 69.4046 56.9872 69.6033 56.7362C69.8021 56.4852 70.1695 56.298 70.7054 56.1746C71.5338 55.984 72.0115 56.1647 72.1386 56.7169C72.2321 57.123 72.2947 58.1005 72.3263 59.6496C72.3478 61.5259 72.4315 62.7808 72.5773 63.4142C72.6894 63.9015 72.8404 64.2601 73.0302 64.4901C73.2199 64.72 73.4691 64.7995 73.7777 64.7284C74.0701 64.6611 74.3888 64.374 74.7338 63.867C75.0789 63.36 75.5159 62.5838 76.0449 61.5385C76.1874 61.2663 76.3805 61.1021 76.6241 61.046C76.8353 60.9974 77.0201 61.0575 77.1787 61.2262C77.3535 61.3912 77.4802 61.6442 77.5587 61.9853C77.7082 62.635 77.6698 63.174 77.4435 63.6024C76.288 65.9378 75.0118 67.2663 73.615 67.5878ZM81.2688 66.3903C80.4242 66.5847 79.7297 66.5393 79.1852 66.2542C78.6569 65.9654 78.3367 65.5773 78.2245 65.0901C78.1273 64.6678 78.1975 64.2668 78.435 63.8872C78.6726 63.5076 79.0918 63.2486 79.6928 63.1102C79.9039 63.0616 80.1532 63.0299 80.4405 63.0151C80.7403 62.9802 80.9652 62.9541 81.1151 62.9367C81.0017 62.5182 80.8126 62.1427 80.5479 61.8102C80.2995 61.4741 80.0061 61.1654 79.6677 60.8841C79.3256 60.5866 79.0109 60.3341 78.7237 60.1266C78.4408 61.2007 78.1205 62.1125 77.7629 62.8618C77.4214 63.6074 77.0238 64.3318 76.57 65.0348C76.3449 65.3945 76.07 65.6117 75.7451 65.6865C75.4852 65.7463 75.2535 65.7056 75.05 65.5643C74.8427 65.4068 74.7073 65.19 74.6437 64.9139C74.5689 64.5891 74.6135 64.2624 74.7773 63.9339L75.0043 63.4712C75.6433 62.1611 76.108 61.0964 76.3982 60.2771C76.5659 59.7425 76.7468 59.0424 76.9409 58.1768C77.1312 57.295 77.3079 56.3906 77.4708 55.4638C77.6148 54.6781 78.1741 54.1731 79.1486 53.9488C79.6034 53.8441 79.9295 53.8118 80.1268 53.8519C80.3242 53.8919 80.4434 54.0013 80.4846 54.18C80.507 54.2774 80.51 54.4392 80.4937 54.6653C80.4773 54.8914 80.4366 55.1231 80.3715 55.3604C80.2138 56.0124 80.1816 56.5415 80.2751 56.9475C80.3312 57.1911 80.4741 57.4404 80.7038 57.6954C80.9498 57.9466 81.3019 58.2504 81.7601 58.6066C82.4369 59.1691 82.9613 59.6641 83.3334 60.0916C83.7179 60.499 83.9756 60.987 84.1065 61.5554C84.1439 61.7178 84.18 61.949 84.2148 62.2488C84.9396 61.757 85.6847 60.7218 86.4501 59.1432C86.5926 58.8709 86.7857 58.7068 87.0293 58.6507C87.2405 58.6021 87.4253 58.6621 87.5839 58.8309C87.7587 58.9959 87.8854 59.2489 87.9639 59.59C88.106 60.2072 88.0676 60.7462 87.8487 61.207C87.2684 62.401 86.6477 63.2707 85.9866 63.8163C85.338 64.3418 84.4733 64.7461 83.3926 65.0291C82.87 65.7309 82.1621 66.1846 81.2688 66.3903ZM88.922 54.4182C89.0765 55.2378 89.2061 55.8749 89.3107 56.3297C89.58 57.4991 89.8481 58.4037 90.115 59.0434C90.3945 59.6632 90.706 60.0875 91.0494 60.3163C91.4053 60.5251 91.835 60.5715 92.3385 60.4556C92.5984 60.3958 92.8883 60.2436 93.2082 59.9989C93.5282 59.7542 93.8044 59.4683 94.0369 59.1411C94.1782 58.9376 94.3382 58.8152 94.5168 58.7741C94.7117 58.7292 94.8922 58.8074 95.0582 59.0086C95.2368 59.1898 95.3616 59.4348 95.4326 59.7434C95.5036 60.052 95.5078 60.3674 95.4452 60.6896C95.3988 61.0082 95.2762 61.2929 95.0775 61.5439C94.3937 62.4367 93.5158 63.0065 92.4438 63.2533C90.9009 63.6085 89.6244 63.2268 88.6143 62.1082C87.6006 60.9734 86.8544 59.3665 86.3758 57.2875C86.2113 56.5729 86.0693 55.8445 85.9498 55.1024L84.9996 55.3212C84.5123 55.4333 84.1588 55.4206 83.939 55.2831C83.7355 55.1418 83.5888 54.8763 83.4991 54.4865C83.2897 53.577 83.5505 53.0381 84.2814 52.8698L85.67 52.5501C85.5349 50.7 85.5814 48.9704 85.8096 47.3616C86.0378 45.7527 86.4489 44.4181 87.0429 43.3579C87.653 42.2938 88.421 41.6553 89.3468 41.4422C90.029 41.2851 90.6341 41.4622 91.1623 41.9734C91.6904 42.4846 92.0592 43.195 92.2686 44.1046C92.8481 46.622 92.2971 49.0577 90.6157 51.4116L93.3443 50.7835C93.6042 50.7236 93.8041 50.7375 93.9439 50.825C94.0838 50.9125 94.1892 51.1106 94.2603 51.4192C94.5183 52.5399 93.7296 53.3115 91.8943 53.734L88.922 54.4182ZM89.2274 43.9324C88.9838 43.9885 88.7787 44.3607 88.6122 45.0489C88.4582 45.7171 88.3684 46.6271 88.3428 47.7789C88.3297 48.9107 88.3853 50.155 88.5095 51.5117C89.277 50.4627 89.7786 49.3724 90.014 48.2408C90.262 47.0891 90.2887 46.091 90.0943 45.2464C89.8737 44.2882 89.5848 43.8502 89.2274 43.9324Z" fill="url(#paint0_linear_1533_3032)"/>
<path d="M36.7763 96.0842C36.9975 95.9307 37.1893 95.8352 37.3517 95.7978C37.6116 95.738 37.829 95.7906 38.0038 95.9556C38.1786 96.1206 38.3015 96.3574 38.3725 96.666C38.4847 97.1532 38.4582 97.5954 38.2931 97.9926C38.1442 98.386 37.8174 98.7862 37.3125 99.1932C36.4589 99.8686 35.3005 100.52 33.8373 101.148C32.3704 101.759 30.898 102.235 29.42 102.575C27.3735 103.046 25.6076 103.213 24.1224 103.076C22.6334 102.923 21.4543 102.519 20.5852 101.864C19.7324 101.205 19.1881 100.364 18.9526 99.3408C18.631 97.944 18.8047 96.6555 19.4737 95.4753C20.1552 94.2752 21.3225 93.254 22.9757 92.4116C21.9538 92.3561 21.1027 92.039 20.4221 91.4602C19.7579 90.8777 19.3267 90.1561 19.1285 89.2953C18.8593 88.1258 18.9873 87.0104 19.5125 85.9488C20.0503 84.8673 20.8884 83.9389 22.0268 83.1638C23.1653 82.3886 24.4816 81.829 25.9759 81.485C27.9899 81.0214 29.6013 81.1122 30.8102 81.7575C32.0154 82.3865 32.7769 83.3912 33.0947 84.7718C33.3153 85.7301 33.3161 86.5508 33.0971 87.234C32.8906 87.8972 32.4626 88.3036 31.8129 88.4532C31.3581 88.5579 30.9784 88.5427 30.6736 88.4076C30.3651 88.2563 30.1642 87.9776 30.0707 87.5716C30.0071 87.2955 29.9786 86.9856 29.985 86.6421C29.9428 86.0874 29.8993 85.7126 29.8544 85.5177C29.7198 84.933 29.3921 84.5125 28.8713 84.2561C28.3468 83.9835 27.5729 83.965 26.5497 84.2005C25.1691 84.5183 24.132 85.065 23.4383 85.8403C22.7445 86.6157 22.5117 87.4988 22.7398 88.4896C22.9155 89.2529 23.3699 89.8153 24.103 90.1767C24.8486 90.5182 25.9336 90.5506 27.3578 90.274C27.7189 90.208 27.9893 90.2313 28.1692 90.3438C28.349 90.4563 28.4782 90.6831 28.5567 91.0242C28.8034 92.0962 28.4414 92.7525 27.4707 92.993C26.1301 93.3359 25.0524 93.7806 24.2376 94.3273C23.4391 94.8703 22.8985 95.4566 22.6158 96.086C22.3456 96.6955 22.2797 97.3007 22.4181 97.9016C22.6499 98.9086 23.2966 99.5636 24.3583 99.8665C25.4162 100.153 26.9685 100.061 29.0149 99.5897C30.363 99.2794 31.7486 98.7979 33.1719 98.1454C34.6076 97.4728 35.8091 96.7858 36.7763 96.0842ZM39.0322 100.362C38.415 100.504 37.9017 100.28 37.4923 99.6905C37.0991 99.0969 36.738 98.0855 36.409 96.6562C35.9229 94.5448 35.7616 92.4697 35.9251 90.4311C35.9628 89.9264 36.1198 89.5311 36.3961 89.2452C36.6848 88.9393 37.1296 88.7172 37.7306 88.5788C38.0554 88.5041 38.2921 88.4923 38.4408 88.5436C38.5894 88.5949 38.6899 88.7342 38.7422 88.9616C38.8021 89.2215 38.8149 89.8343 38.7806 90.7999C38.7677 91.4869 38.7687 92.0853 38.7834 92.595C38.7981 93.1047 38.8552 93.7243 38.9548 94.4539C39.1692 92.9338 39.5084 91.6585 39.9725 90.6281C40.4365 89.5978 40.9422 88.8229 41.4896 88.3035C42.0533 87.7804 42.6031 87.4571 43.1391 87.3338C44.1948 87.0907 44.8442 87.4971 45.0872 88.5528C45.1359 88.7639 45.1805 89.2924 45.2213 90.1381C45.2409 90.8177 45.2694 91.2387 45.3068 91.4011C45.4377 91.9696 45.7062 92.2071 46.1122 92.1136C46.567 92.0089 47.0694 91.517 47.6196 90.6378C47.7821 90.3781 47.977 90.222 48.2044 90.1697C48.4156 90.1211 48.6004 90.1811 48.759 90.3499C48.9301 90.4986 49.0511 90.7273 49.1221 91.0359C49.2605 91.6368 49.2065 92.1452 48.9602 92.5611C48.6138 93.1368 48.1713 93.6662 47.6327 94.1494C47.1065 94.6126 46.5023 94.9227 45.8202 95.0797C44.9594 95.2779 44.2511 95.2101 43.6954 94.8762C43.1559 94.5386 42.8001 93.9963 42.6281 93.2492C42.5721 93.0055 42.5403 92.7563 42.533 92.5015C42.4907 92.1691 42.4565 91.9461 42.4303 91.8324C42.3705 91.5726 42.2512 91.4632 42.0726 91.5043C41.8289 91.5604 41.5676 91.9113 41.2887 92.557C41.0223 93.1827 40.797 93.9871 40.6129 94.9701C40.4287 95.9532 40.3288 96.9681 40.3133 98.0149C40.3104 98.8194 40.2189 99.3878 40.0388 99.72C39.8712 100.032 39.5357 100.246 39.0322 100.362ZM65.8065 86.2715C65.8515 86.2441 65.9308 86.2172 66.0445 86.1911C66.2882 86.135 66.4936 86.1732 66.661 86.3057C66.8283 86.4382 66.9437 86.6425 67.0073 86.9186C67.1232 87.4221 67.1173 87.8425 66.9897 88.1797C66.8584 88.5007 66.6128 88.771 66.2529 88.9907C65.5619 89.4063 64.7941 89.7113 63.9495 89.9057C63.2348 90.0703 62.5384 90.128 61.8601 90.0789C61.5648 90.9507 61.2264 91.8581 60.8449 92.801C60.4083 93.8764 59.9938 94.6388 59.6013 95.0883C59.225 95.5341 58.7446 95.8243 58.1599 95.9589C57.5102 96.1084 56.9568 95.9707 56.4999 95.5457C56.0591 95.117 55.6654 94.3354 55.3187 93.2009L54.7875 91.4505C54.5981 92.9307 54.3826 94.0749 54.1411 94.883C53.9158 95.6874 53.6319 96.2744 53.2894 96.644C52.9632 97.0098 52.532 97.2544 51.9961 97.3778C51.3302 97.5311 50.7425 97.3928 50.233 96.9628C49.7398 96.529 49.3155 95.763 48.96 94.6648C48.2417 92.4358 47.6862 90.4686 47.2936 88.7632L47.0973 87.9105C46.9902 87.3708 47.0504 86.9635 47.2779 86.6888C47.5054 86.4141 47.8952 86.2132 48.4475 86.0861C48.8697 85.9889 49.2008 86.0153 49.4405 86.1653C49.6928 86.2954 49.8694 86.5797 49.9704 87.0182C50.4004 88.886 51.073 91.288 51.9884 94.2242C52.5582 91.6473 53.0162 88.9936 53.3624 86.263C53.4289 85.7346 53.5653 85.3612 53.7715 85.1427C53.9902 84.9042 54.2783 84.7438 54.6356 84.6615C55.0741 84.5606 55.3952 84.5807 55.5987 84.722C55.8185 84.8595 55.9807 85.1557 56.0854 85.6105C56.5154 87.4783 57.1881 89.8803 58.1034 92.8164C58.7452 91.1466 59.2106 89.8251 59.4997 88.8522C59.1476 88.4372 58.8968 87.9049 58.7473 87.2552C58.6201 86.703 58.6186 86.139 58.7425 85.5632C58.8665 84.9874 59.1023 84.4884 59.4498 84.0664C59.7973 83.6443 60.239 83.3716 60.775 83.2482C61.246 83.1398 61.667 83.2225 62.0378 83.4962C62.405 83.7538 62.6615 84.1992 62.8073 84.8327C62.9755 85.5636 62.9732 86.4449 62.8002 87.4767C63.41 87.3021 64.2021 86.9915 65.1768 86.5448L65.8065 86.2715ZM66.6034 80.239C65.9212 80.396 65.3741 80.3595 64.962 80.1294C64.5461 79.8831 64.2727 79.4757 64.1419 78.9072C64.011 78.3388 64.1218 77.8173 64.4744 77.3428C64.8394 76.8483 65.3549 76.5244 66.0208 76.3711C66.6218 76.2327 67.1427 76.2668 67.5835 76.4731C68.0244 76.6795 68.3065 77.0506 68.4299 77.5866C68.5795 78.2363 68.488 78.8046 68.1554 79.2917C67.8191 79.7624 67.3018 80.0782 66.6034 80.239ZM69.4202 93.3667C68.3645 93.6097 67.507 93.4137 66.8478 92.7788C66.2048 92.1401 65.7412 91.2035 65.457 89.9692C65.2888 89.2383 65.1631 88.2838 65.08 87.1058C65.0095 85.9077 65.0063 84.7797 65.0706 83.7216C65.0971 83.1682 65.2098 82.766 65.4085 82.515C65.6073 82.2641 65.9747 82.0769 66.5106 81.9535C67.339 81.7628 67.8167 81.9436 67.9438 82.4958C68.0373 82.9018 68.0999 83.8794 68.1315 85.4284C68.153 87.3048 68.2367 88.5597 68.3825 89.1931C68.4946 89.6803 68.6456 90.039 68.8354 90.2689C69.0251 90.4989 69.2743 90.5783 69.5829 90.5073C69.8752 90.44 70.194 90.1528 70.539 89.6458C70.8841 89.1388 71.3211 88.3627 71.8501 87.3174C71.9926 87.0451 72.1857 86.8809 72.4293 86.8249C72.6405 86.7763 72.8253 86.8363 72.9839 87.005C73.1587 87.17 73.2854 87.4231 73.3639 87.7642C73.5134 88.4138 73.475 88.9528 73.2487 89.3812C72.0932 91.7166 70.817 93.0451 69.4202 93.3667ZM74.1489 92.2781C73.5317 92.4202 73.0184 92.1963 72.6089 91.6064C72.2158 91.0129 71.8547 90.0014 71.5256 88.5721C71.0396 86.4607 70.8783 84.3857 71.0418 82.347C71.0795 81.8424 71.2365 81.4471 71.5127 81.1611C71.8015 80.8552 72.2463 80.6331 72.8472 80.4948C73.1721 80.42 73.4088 80.4082 73.5574 80.4595C73.7061 80.5108 73.8066 80.6502 73.8589 80.8776C73.9187 81.1374 73.9315 81.7502 73.8973 82.7158C73.8844 83.4029 73.8853 84.0013 73.9001 84.5109C73.9148 85.0206 73.9719 85.6403 74.0715 86.3699C74.2859 84.8497 74.6251 83.5744 75.0891 82.5441C75.5531 81.5137 76.0589 80.7388 76.6063 80.2194C77.17 79.6963 77.7198 79.3731 78.2558 79.2497C78.7755 79.13 79.1971 79.1784 79.5205 79.3946C79.8565 79.591 80.0843 79.949 80.2039 80.4687C80.3011 80.891 80.395 81.7074 80.4856 82.918C80.5512 83.9461 80.6381 84.918 80.7463 85.8338C80.8508 86.7333 81.0283 87.7271 81.2788 88.8153C81.4209 89.4325 81.3937 89.9091 81.1974 90.245C81.0136 90.561 80.6375 90.7844 80.069 90.9152C79.5331 91.0386 79.1115 90.9903 78.8043 90.7703C78.4971 90.5503 78.2799 90.1641 78.1528 89.6119C78.0032 88.9622 77.8702 87.8641 77.7536 86.3175C77.6494 84.9733 77.5561 84.1225 77.4739 83.7652C77.414 83.5053 77.2948 83.396 77.1161 83.4371C76.905 83.4857 76.6681 83.831 76.4054 84.4729C76.1552 85.0949 75.9299 85.8993 75.7295 86.8861C75.5454 87.8691 75.4455 88.884 75.43 89.9309C75.427 90.7354 75.3355 91.3037 75.1555 91.6359C74.9879 91.9481 74.6524 92.1622 74.1489 92.2781ZM98.7898 79.2943C99.2445 79.1896 99.5504 79.4783 99.7075 80.1605C100.003 81.4436 99.1435 82.3169 97.1296 82.7806C96.7397 82.8703 96.1626 82.9262 95.398 82.9483C95.841 83.9067 96.2695 84.9881 96.6836 86.1926C97.1102 87.3771 97.4151 88.3672 97.5983 89.1631C98.0022 90.9172 98.0264 92.3226 97.671 93.3792C97.3157 94.4359 96.6751 95.0708 95.7493 95.2839C94.5799 95.5531 93.5528 94.9173 92.6679 93.3766C91.7993 91.8321 90.9799 89.3869 90.2096 86.0411C89.4917 82.9226 89.0975 79.687 89.0268 76.334C88.9687 72.9611 89.2831 70.0924 89.9702 67.728C90.6698 65.3436 91.7261 63.9888 93.1391 63.6635C93.9025 63.4878 94.5739 63.6924 95.1532 64.2773C95.7488 64.8585 96.1793 65.7257 96.4447 66.8789C97.3234 70.6957 95.9986 75.379 92.4703 80.9286C92.6743 82.5577 92.9147 83.9732 93.1914 85.1751C93.5765 86.848 94.0278 88.5484 94.5453 90.2764C95.0665 92.0206 95.4571 92.8628 95.7169 92.8029C96.2042 92.6908 96.2534 91.7901 95.8646 90.1009C95.5729 88.8341 95.2013 87.6284 94.7497 86.4839C94.3143 85.3356 93.799 84.1373 93.2038 82.889C93.139 82.6816 93.1422 82.3987 93.2136 82.0402C93.3013 81.678 93.4308 81.3489 93.6021 81.0529C93.7734 80.7569 93.9483 80.5884 94.127 80.5472C94.4518 80.4725 94.8454 80.399 95.3076 80.3268C95.4575 80.3093 95.63 80.2782 95.8249 80.2333C96.4745 80.0838 97.1842 79.8606 97.9539 79.5636C98.0801 79.5175 98.2144 79.4695 98.3568 79.4196C98.4993 79.3697 98.6436 79.3279 98.7898 79.2943ZM93.1828 66.1932C92.8904 66.2605 92.639 66.84 92.4286 67.9317C92.2343 69.0197 92.1149 70.4325 92.0703 72.1701C92.0219 73.8915 92.0528 75.6973 92.1629 77.5874C93.122 75.8103 93.7676 74.0455 94.0996 72.293C94.4278 70.5243 94.4393 68.9397 94.134 67.5391C93.9059 66.5484 93.5888 66.0997 93.1828 66.1932ZM100.962 86.1055C100.345 86.2476 99.8317 86.0237 99.4223 85.4339C99.0291 84.8403 98.668 83.8288 98.339 82.3995C97.8529 80.2881 97.6916 78.2131 97.8551 76.1744C97.8928 75.6698 98.0498 75.2745 98.3261 74.9885C98.6148 74.6826 99.0596 74.4605 99.6606 74.3222C99.9854 74.2474 100.222 74.2357 100.371 74.2869C100.519 74.3382 100.62 74.4776 100.672 74.705C100.732 74.9648 100.745 75.5776 100.711 76.5432C100.698 77.2303 100.699 77.8287 100.713 78.3384C100.728 78.848 100.785 79.4677 100.885 80.1973C101.099 78.6771 101.438 77.4018 101.902 76.3715C102.366 75.3411 102.872 74.5662 103.42 74.0469C103.983 73.5237 104.533 73.2005 105.069 73.0771C106.125 72.8341 106.774 73.2404 107.017 74.2961C107.066 74.5073 107.111 75.0357 107.151 75.8815C107.171 76.561 107.199 76.982 107.237 77.1445C107.368 77.7129 107.636 77.9504 108.042 77.8569C108.497 77.7523 108.999 77.2603 109.55 76.3812C109.712 76.1214 109.907 75.9654 110.134 75.913C110.346 75.8644 110.53 75.9245 110.689 76.0932C110.86 76.242 110.981 76.4706 111.052 76.7792C111.19 77.3802 111.137 77.8886 110.89 78.3044C110.544 78.8801 110.101 79.4096 109.563 79.8927C109.036 80.3559 108.432 80.666 107.75 80.8231C106.889 81.0212 106.181 80.9534 105.625 80.6196C105.086 80.282 104.73 79.7396 104.558 78.9925C104.502 78.7489 104.47 78.4996 104.463 78.2448C104.421 77.9125 104.386 77.6895 104.36 77.5758C104.3 77.3159 104.181 77.2065 104.003 77.2477C103.759 77.3038 103.498 77.6546 103.219 78.3003C102.952 78.9261 102.727 79.7304 102.543 80.7135C102.359 81.6965 102.259 82.7114 102.243 83.7583C102.24 84.5628 102.149 85.1311 101.969 85.4633C101.801 85.7755 101.466 85.9896 100.962 86.1055ZM113.316 83.2616C112.309 83.4934 111.421 83.313 110.652 82.7205C109.883 82.128 109.361 81.2389 109.089 80.0532C108.789 78.7538 108.808 77.4584 109.143 76.1669C109.475 74.8591 110.056 73.742 110.886 72.8156C111.728 71.8691 112.71 71.2669 113.83 71.0089C114.188 70.9266 114.44 70.9455 114.587 71.0655C114.747 71.1655 114.909 71.3849 115.072 71.7235C115.398 71.58 115.748 71.4652 116.122 71.3793C116.918 71.196 117.381 71.3887 117.512 71.9571C117.59 72.2982 117.656 73.1384 117.707 74.4775C117.764 76.4314 117.876 77.7737 118.044 78.5046C118.1 78.7482 118.202 78.93 118.35 79.05C118.513 79.1663 118.692 79.202 118.887 79.1571C119.196 79.0861 119.525 78.8052 119.873 78.3144C120.218 77.8074 120.662 77.0213 121.203 75.956C121.346 75.6837 121.539 75.5196 121.782 75.4635C121.994 75.4149 122.178 75.4749 122.337 75.6437C122.512 75.8087 122.638 76.0617 122.717 76.4028C122.867 77.0524 122.828 77.5915 122.602 78.0198C122.127 79.0015 121.581 79.8625 120.965 80.603C120.348 81.3434 119.691 81.794 118.993 81.9548C118.457 82.0782 117.92 82.0136 117.383 81.7609C116.859 81.4883 116.41 81.0615 116.036 80.4804C115.506 82.0391 114.599 82.9662 113.316 83.2616ZM113.627 80.599C113.984 80.5168 114.276 80.2271 114.504 79.73C114.732 79.233 114.838 78.6184 114.824 77.8864L114.693 73.1961C114.015 73.3694 113.441 73.7751 112.972 74.4132C112.516 75.0313 112.211 75.7857 112.057 76.6763C111.902 77.5669 111.93 78.467 112.139 79.3765C112.255 79.88 112.439 80.2311 112.69 80.4299C112.957 80.6249 113.269 80.6813 113.627 80.599ZM123.493 80.9188C122.876 81.0609 122.363 80.837 121.953 80.2471C121.56 79.6535 121.199 78.6421 120.87 77.2128C120.384 75.1014 120.222 73.0263 120.386 70.9877C120.424 70.483 120.581 70.0877 120.857 69.8018C121.146 69.4959 121.59 69.2738 122.191 69.1354C122.516 69.0607 122.753 69.0489 122.902 69.1002C123.05 69.1515 123.151 69.2909 123.203 69.5182C123.263 69.7781 123.276 70.3909 123.241 71.3565C123.229 72.0436 123.229 72.6419 123.244 73.1516C123.255 73.6451 123.31 74.2566 123.41 74.9862C123.557 73.6184 123.83 72.4268 124.229 71.4114C124.644 70.3922 125.12 69.5986 125.656 69.0305C126.205 68.4424 126.763 68.0829 127.332 67.9521C127.9 67.8212 128.328 67.8595 128.615 68.067C128.919 68.2708 129.132 68.6407 129.256 69.1767C129.375 69.6964 129.438 70.674 129.443 72.1093C129.448 72.724 129.46 73.1831 129.478 73.4866C129.7 71.9989 130.037 70.7499 130.488 69.7395C130.956 68.7254 131.466 67.9668 132.017 67.4636C132.564 66.9442 133.106 66.6229 133.642 66.4995C134.162 66.3798 134.583 66.4281 134.907 66.6444C135.243 66.8407 135.47 67.1988 135.59 67.7185C135.687 68.1408 135.781 68.9572 135.872 70.1677C135.937 71.1959 136.024 72.1678 136.132 73.0836C136.237 73.9831 136.414 74.9769 136.665 76.0651C136.807 76.6823 136.78 77.1589 136.584 77.4948C136.4 77.8108 136.024 78.0342 135.455 78.165C134.919 78.2884 134.498 78.2401 134.19 78.0201C133.883 77.8 133.666 77.4139 133.539 76.8617C133.389 76.212 133.256 75.1139 133.14 73.5673C133.035 72.2231 132.942 71.3723 132.86 71.015C132.8 70.7551 132.681 70.6457 132.502 70.6869C132.291 70.7355 132.054 71.0808 131.792 71.7227C131.525 72.3484 131.3 73.1528 131.116 74.1358C130.931 75.1189 130.832 76.1338 130.816 77.1807C130.817 78.0014 130.725 78.5697 130.542 78.8857C130.374 79.1979 130.03 79.4138 129.511 79.5335C128.975 79.6569 128.511 79.4986 128.119 79.0587C127.739 78.5987 127.465 78.0033 127.297 77.2725C127.155 76.6553 127.03 75.7433 126.924 74.5365C126.814 73.4671 126.722 72.77 126.647 72.4451C126.588 72.1853 126.468 72.0759 126.29 72.117C126.046 72.1731 125.805 72.5365 125.566 73.2072C125.327 73.8779 125.133 74.7092 124.986 75.701C124.854 76.689 124.783 77.6459 124.774 78.5716C124.771 79.376 124.68 79.9444 124.5 80.2766C124.332 80.5888 123.997 80.8029 123.493 80.9188Z" fill="url(#paint1_linear_1533_3032)"/>
</g>
<defs>
<filter id="filter0_d_1533_3032" x="0" y="0" width="152.824" height="152.824" filterUnits="userSpaceOnUse" color-interpolation-filters="sRGB">
<feFlood flood-opacity="0" result="BackgroundImageFix"/>
<feColorMatrix in="SourceAlpha" type="matrix" values="0 0 0 0 0 0 0 0 0 0 0 0 0 0 0 0 0 0 127 0" result="hardAlpha"/>
<feOffset dy="4"/>
<feGaussianBlur stdDeviation="2"/>
<feComposite in2="hardAlpha" operator="out"/>
<feColorMatrix type="matrix" values="0 0 0 0 0 0 0 0 0 0 0 0 0 0 0 0 0 0 0.05 0"/>
<feBlend mode="normal" in2="BackgroundImageFix" result="effect1_dropShadow_1533_3032"/>
<feBlend mode="normal" in="SourceGraphic" in2="effect1_dropShadow_1533_3032" result="shape"/>
</filter>
<linearGradient id="paint0_linear_1533_3032" x1="38.9499" y1="71.4587" x2="98.546" y2="51.3976" gradientUnits="userSpaceOnUse">
<stop stop-color="#FD23E3"/>
<stop offset="0.495066" stop-color="#8021E8"/>
<stop offset="1" stop-color="#0619EA"/>
</linearGradient>
<linearGradient id="paint1_linear_1533_3032" x1="37.1023" y1="96.6972" x2="139.256" y2="53.4441" gradientUnits="userSpaceOnUse">
<stop stop-color="#FD23E3"/>
<stop offset="0.495066" stop-color="#8021E8"/>
<stop offset="1" stop-color="#0619EA"/>
</linearGradient>
</defs>
</svg>
